<?xml version="1.0" encoding="utf-8"?>
<svg width="150" height="85" viewBox="0 0 150 85" fill="none" xmlns="http://www.w3.org/2000/svg">
<rect x="1" y="1" width="148" height="83" fill="black" stroke="black" stroke-width="2"/>
<path d="M14.312 13.6563V27.0003H18.776V13.6563H22.136V9.86426H11V13.6563H14.312Z" fill="white"/>
<path d="M23.1419 9.86426V27.0003H27.6059V19.9443H30.3419V27.0003H34.8059V9.86426H30.3419V16.1523H27.6059V9.86426H23.1419Z" fill="white"/>
<path d="M42.5152 13.3683L41.2912 20.6403H43.7872L42.5632 13.3683H42.5152ZM45.3472 9.86426L49.5232 27.0003H44.7712L44.3152 24.0003H40.7632L40.3072 27.0003H35.6272L39.7312 9.86426H45.3472Z" fill="white"/>
<path d="M50.2591 9.86426V27.0003H54.4351V16.4163H54.4831L57.4591 27.0003H62.3551V9.86426H58.1791V20.4243H58.1311L55.2511 9.86426H50.2591Z" fill="white"/>
<path d="M64.2942 9.86426V27.0003H68.7582V22.4643L69.6942 21.0243L72.3102 27.0003H77.3982L72.5502 17.3523L76.8702 9.86426H72.1182L68.8062 16.4403H68.7582V9.86426H64.2942Z" fill="white"/>
<path d="M15.008 42.2563V49.0003H19.472V42.2563L23.84 31.8643H18.944L17.264 37.8403H17.216L15.536 31.8643H10.712L15.008 42.2563Z" fill="white"/>
<path d="M27.949 40.4323C27.949 39.2803 27.965 38.3283 27.997 37.5763C28.029 36.8083 28.093 36.2003 28.189 35.7523C28.301 35.3043 28.453 34.9923 28.645 34.8163C28.853 34.6403 29.125 34.5523 29.461 34.5523C29.797 34.5523 30.061 34.6403 30.253 34.8163C30.461 34.9923 30.613 35.3043 30.709 35.7523C30.821 36.2003 30.893 36.8083 30.925 37.5763C30.957 38.3283 30.973 39.2803 30.973 40.4323C30.973 41.5843 30.957 42.5443 30.925 43.3123C30.893 44.0643 30.821 44.6643 30.709 45.1123C30.613 45.5603 30.461 45.8723 30.253 46.0483C30.061 46.2243 29.797 46.3123 29.461 46.3123C29.125 46.3123 28.853 46.2243 28.645 46.0483C28.453 45.8723 28.301 45.5603 28.189 45.1123C28.093 44.6643 28.029 44.0643 27.997 43.3123C27.965 42.5443 27.949 41.5843 27.949 40.4323ZM23.341 40.4323C23.341 42.0323 23.445 43.4003 23.653 44.5363C23.861 45.6563 24.205 46.5763 24.685 47.2963C25.165 48.0003 25.797 48.5043 26.581 48.8083C27.365 49.1123 28.325 49.2643 29.461 49.2643C30.597 49.2643 31.557 49.1123 32.341 48.8083C33.125 48.5043 33.757 48.0003 34.237 47.2963C34.717 46.5763 35.061 45.6563 35.269 44.5363C35.477 43.4003 35.581 42.0323 35.581 40.4323C35.581 38.8323 35.477 37.4723 35.269 36.3523C35.061 35.2163 34.717 34.2963 34.237 33.5923C33.757 32.8723 33.125 32.3523 32.341 32.0323C31.557 31.6963 30.597 31.5283 29.461 31.5283C28.325 31.5283 27.365 31.6963 26.581 32.0323C25.797 32.3523 25.165 32.8723 24.685 33.5923C24.205 34.2963 23.861 35.2163 23.653 36.3523C23.445 37.4723 23.341 38.8323 23.341 40.4323Z" fill="white"/>
<path d="M41.453 31.8643H36.989V43.0963C36.989 44.2963 37.117 45.2963 37.373 46.0963C37.629 46.8963 37.997 47.5363 38.477 48.0163C38.973 48.4963 39.581 48.8243 40.301 49.0003C41.037 49.1763 41.869 49.2643 42.797 49.2643C43.741 49.2643 44.573 49.1763 45.293 49.0003C46.013 48.8243 46.613 48.4963 47.093 48.0163C47.589 47.5363 47.965 46.8963 48.221 46.0963C48.477 45.2963 48.605 44.2963 48.605 43.0963V31.8643H44.141V44.2243C44.141 45.0563 44.021 45.6163 43.781 45.9043C43.541 46.1763 43.213 46.3123 42.797 46.3123C42.381 46.3123 42.053 46.1763 41.813 45.9043C41.573 45.6163 41.453 45.0563 41.453 44.2243V31.8643Z" fill="white"/>
<path d="M56.7513 31.8643V49.0003H61.2153V41.9443H66.5433V38.4403H61.2153V35.5123H66.9033V31.8643H56.7513Z" fill="white"/>
<path d="M72.41 40.4323C72.41 39.2803 72.426 38.3283 72.458 37.5763C72.49 36.8083 72.554 36.2003 72.65 35.7523C72.762 35.3043 72.914 34.9923 73.106 34.8163C73.314 34.6403 73.586 34.5523 73.922 34.5523C74.258 34.5523 74.522 34.6403 74.714 34.8163C74.922 34.9923 75.074 35.3043 75.17 35.7523C75.282 36.2003 75.354 36.8083 75.386 37.5763C75.418 38.3283 75.434 39.2803 75.434 40.4323C75.434 41.5843 75.418 42.5443 75.386 43.3123C75.354 44.0643 75.282 44.6643 75.17 45.1123C75.074 45.5603 74.922 45.8723 74.714 46.0483C74.522 46.2243 74.258 46.3123 73.922 46.3123C73.586 46.3123 73.314 46.2243 73.106 46.0483C72.914 45.8723 72.762 45.5603 72.65 45.1123C72.554 44.6643 72.49 44.0643 72.458 43.3123C72.426 42.5443 72.41 41.5843 72.41 40.4323ZM67.802 40.4323C67.802 42.0323 67.906 43.4003 68.114 44.5363C68.322 45.6563 68.666 46.5763 69.146 47.2963C69.626 48.0003 70.258 48.5043 71.042 48.8083C71.826 49.1123 72.786 49.2643 73.922 49.2643C75.058 49.2643 76.018 49.1123 76.802 48.8083C77.586 48.5043 78.218 48.0003 78.698 47.2963C79.178 46.5763 79.522 45.6563 79.73 44.5363C79.938 43.4003 80.042 42.0323 80.042 40.4323C80.042 38.8323 79.938 37.4723 79.73 36.3523C79.522 35.2163 79.178 34.2963 78.698 33.5923C78.218 32.8723 77.586 32.3523 76.802 32.0323C76.018 31.6963 75.058 31.5283 73.922 31.5283C72.786 31.5283 71.826 31.6963 71.042 32.0323C70.258 32.3523 69.626 32.8723 69.146 33.5923C68.666 34.2963 68.322 35.2163 68.114 36.3523C67.906 37.4723 67.802 38.8323 67.802 40.4323Z" fill="white"/>
<path d="M86.1059 39.1123V35.0803H86.9699C87.6419 35.0803 88.1219 35.2323 88.4099 35.5363C88.7139 35.8403 88.8659 36.3523 88.8659 37.0723C88.8659 37.6803 88.7139 38.1763 88.4099 38.5603C88.1059 38.9283 87.6339 39.1123 86.9939 39.1123H86.1059ZM81.6419 31.8643V49.0003H86.1059V42.1363H87.2819C87.5539 42.1363 87.7779 42.1763 87.9539 42.2563C88.1459 42.3203 88.2979 42.4483 88.4099 42.6403C88.5379 42.8163 88.6259 43.0643 88.6739 43.3843C88.7219 43.7043 88.7459 44.1043 88.7459 44.5843V45.7363C88.7459 45.9123 88.7459 46.1443 88.7459 46.4323C88.7619 46.7043 88.7779 46.9923 88.7939 47.2963C88.8259 47.6003 88.8659 47.9043 88.9139 48.2083C88.9779 48.5123 89.0659 48.7763 89.1779 49.0003H93.9299V48.7603C93.7859 48.6803 93.6819 48.6003 93.6179 48.5203C93.5539 48.4243 93.4899 48.3283 93.4259 48.2323C93.3779 48.1363 93.3379 48.0003 93.3059 47.8243C93.2739 47.6483 93.2499 47.4563 93.2339 47.2483C93.2179 47.0243 93.2099 46.7923 93.2099 46.5523C93.2099 46.3123 93.2099 46.0803 93.2099 45.8563V44.3923C93.2099 43.2403 93.0099 42.3363 92.6099 41.6803C92.2099 41.0243 91.4739 40.6483 90.4019 40.5523V40.5043C91.4259 40.3443 92.1699 39.9123 92.6339 39.2083C93.0979 38.5043 93.3299 37.5763 93.3299 36.4243C93.3299 35.7683 93.2419 35.1603 93.0659 34.6003C92.9059 34.0403 92.6339 33.5603 92.2499 33.1603C91.8819 32.7443 91.3939 32.4243 90.7859 32.2003C90.1939 31.9763 89.4739 31.8643 88.6259 31.8643H81.6419Z" fill="white"/>
<path d="M16.52 61.1123V57.0803H17.384C18.056 57.0803 18.536 57.2323 18.824 57.5363C19.128 57.8403 19.28 58.3523 19.28 59.0723C19.28 59.6803 19.128 60.1763 18.824 60.5603C18.52 60.9283 18.048 61.1123 17.408 61.1123H16.52ZM12.056 53.8643V71.0003H16.52V64.1363H17.696C17.968 64.1363 18.192 64.1763 18.368 64.2563C18.56 64.3203 18.712 64.4483 18.824 64.6403C18.952 64.8163 19.04 65.0643 19.088 65.3843C19.136 65.7043 19.16 66.1043 19.16 66.5843V67.7363C19.16 67.9123 19.16 68.1443 19.16 68.4323C19.176 68.7043 19.192 68.9923 19.208 69.2963C19.24 69.6003 19.28 69.9043 19.328 70.2083C19.392 70.5123 19.48 70.7763 19.592 71.0003H24.344V70.7603C24.2 70.6803 24.096 70.6003 24.032 70.5203C23.968 70.4243 23.904 70.3283 23.84 70.2323C23.792 70.1363 23.752 70.0003 23.72 69.8243C23.688 69.6483 23.664 69.4563 23.648 69.2483C23.632 69.0243 23.624 68.7923 23.624 68.5523C23.624 68.3123 23.624 68.0803 23.624 67.8563V66.3923C23.624 65.2403 23.424 64.3363 23.024 63.6803C22.624 63.0243 21.888 62.6483 20.816 62.5523V62.5043C21.84 62.3443 22.584 61.9123 23.048 61.2083C23.512 60.5043 23.744 59.5763 23.744 58.4243C23.744 57.7683 23.656 57.1603 23.48 56.6003C23.32 56.0403 23.048 55.5603 22.664 55.1603C22.296 54.7443 21.808 54.4243 21.2 54.2003C20.608 53.9763 19.888 53.8643 19.04 53.8643H12.056Z" fill="white"/>
<path d="M25.8372 53.8643V71.0003H36.2052V67.3523H30.3012V63.9443H35.6292V60.4403H30.3012V57.5123H35.9892V53.8643H25.8372Z" fill="white"/>
<path d="M43.4292 57.3683L42.2052 64.6403H44.7012L43.4772 57.3683H43.4292ZM46.2612 53.8643L50.4372 71.0003H45.6852L45.2292 68.0003H41.6772L41.2212 71.0003H36.5412L40.6452 53.8643H46.2612Z" fill="white"/>
<path d="M51.1732 53.8643V71.0003H57.6532C58.9492 71.0003 59.9572 70.7683 60.6772 70.3043C61.3972 69.8243 61.9332 69.1923 62.2852 68.4083C62.6532 67.6083 62.8772 66.6963 62.9572 65.6723C63.0372 64.6323 63.0772 63.5523 63.0772 62.4323C63.0772 61.3123 63.0372 60.2403 62.9572 59.2163C62.8772 58.1763 62.6532 57.2643 62.2852 56.4803C61.9332 55.6803 61.3972 55.0483 60.6772 54.5843C59.9572 54.1043 58.9492 53.8643 57.6532 53.8643H51.1732ZM55.6372 67.7843V57.0803H56.5252C56.9572 57.0803 57.3012 57.1443 57.5572 57.2723C57.8132 57.3843 58.0052 57.6323 58.1332 58.0163C58.2772 58.4003 58.3652 58.9443 58.3972 59.6483C58.4452 60.3523 58.4692 61.2803 58.4692 62.4323C58.4692 63.5843 58.4452 64.5123 58.3972 65.2163C58.3652 65.9203 58.2772 66.4643 58.1332 66.8483C58.0052 67.2323 57.8132 67.4883 57.5572 67.6163C57.3012 67.7283 56.9572 67.7843 56.5252 67.7843H55.6372Z" fill="white"/>
<path d="M64.7864 53.8643V71.0003H69.2504V53.8643H64.7864Z" fill="white"/>
<path d="M71.1888 53.8643V71.0003H75.3648V60.4163H75.4128L78.3888 71.0003H83.2848V53.8643H79.1088V64.4243H79.0608L76.1808 53.8643H71.1888Z" fill="white"/>
<path d="M91.1519 61.6883V64.7123H92.7359C92.7359 65.4483 92.6959 66.0563 92.6159 66.5363C92.5519 67.0003 92.4559 67.3683 92.3279 67.6403C92.1999 67.8963 92.0399 68.0723 91.8479 68.1683C91.6719 68.2643 91.4639 68.3123 91.2239 68.3123C90.8879 68.3123 90.6159 68.2243 90.4079 68.0483C90.2159 67.8723 90.0639 67.5603 89.9519 67.1123C89.8559 66.6643 89.7919 66.0643 89.7599 65.3123C89.7279 64.5443 89.7119 63.5843 89.7119 62.4323C89.7119 61.2803 89.7279 60.3283 89.7599 59.5763C89.7919 58.8083 89.8559 58.2003 89.9519 57.7523C90.0639 57.3043 90.2239 56.9923 90.4319 56.8163C90.6559 56.6403 90.9519 56.5523 91.3199 56.5523C91.8479 56.5523 92.1919 56.8003 92.3519 57.2963C92.5119 57.7123 92.5919 58.3763 92.5919 59.2883H96.9119C96.9119 58.2483 96.7759 57.3683 96.5039 56.6483C96.2319 55.9123 95.8559 55.3123 95.3759 54.8483C94.8959 54.3843 94.3199 54.0483 93.6479 53.8403C92.9919 53.6323 92.2719 53.5283 91.4879 53.5283C90.1759 53.5283 89.1039 53.7283 88.2719 54.1283C87.4399 54.5123 86.7839 55.0803 86.3039 55.8323C85.8399 56.5843 85.5199 57.5123 85.3439 58.6163C85.1839 59.7203 85.1039 60.9923 85.1039 62.4323C85.1039 63.8563 85.1439 65.1203 85.2239 66.2243C85.3199 67.3283 85.5359 68.2563 85.8719 69.0083C86.2079 69.7603 86.7039 70.3283 87.3599 70.7123C88.0159 71.0803 88.9119 71.2643 90.0479 71.2643C90.4319 71.2643 90.8079 71.2403 91.1759 71.1923C91.5599 71.1443 91.9119 71.0643 92.2319 70.9523C92.5679 70.8243 92.8639 70.6403 93.1199 70.4003C93.3919 70.1603 93.5999 69.8563 93.7439 69.4883H93.7919L93.8879 71.0003H96.9119V61.6883H91.1519Z" fill="white"/>
<path d="M99.3519 59.6003L99.8079 66.0323H103.024L103.528 59.6003V53.8643H99.3519V59.6003ZM99.4479 67.2083V71.0003H103.48V67.2083H99.4479Z" fill="white"/>
</svg>
